<svg width="206" height="41" viewBox="0 0 206 41" fill="none" xmlns="http://www.w3.org/2000/svg">
<path d="M47.2975 11.4856H52.8368C54.2538 11.4856 55.4347 11.958 56.3793 12.9027C57.3383 13.8473 57.8178 15.021 57.8178 16.4237C57.8178 17.8121 57.3383 18.9858 56.3793 19.9448C55.4347 20.8895 54.2538 21.3618 52.8368 21.3618H49.7666V26.5146H47.2975V11.4856ZM49.7666 19.0431H52.8368C53.5668 19.0431 54.1679 18.7998 54.6403 18.3131C55.1126 17.8121 55.3488 17.1823 55.3488 16.4237C55.3488 15.6651 55.1126 15.0425 54.6403 14.5559C54.1679 14.0549 53.5668 13.8044 52.8368 13.8044H49.7666V19.0431ZM61.9203 15.7796V17.5831C62.5071 16.252 63.6092 15.5864 65.2267 15.5864V18.0984C64.3535 18.0411 63.5806 18.2558 62.9079 18.7425C62.2495 19.2148 61.9203 20.0021 61.9203 21.1042V26.5146H59.6015V15.7796H61.9203ZM75.5185 25.162C74.4307 26.2499 73.0924 26.7938 71.5036 26.7938C69.9148 26.7938 68.5765 26.2499 67.4887 25.162C66.3866 24.0599 65.8355 22.7216 65.8355 21.1471C65.8355 19.5727 66.3866 18.2344 67.4887 17.1323C68.5765 16.0444 69.9148 15.5005 71.5036 15.5005C73.0924 15.5005 74.4307 16.0444 75.5185 17.1323C76.6206 18.2344 77.1717 19.5727 77.1717 21.1471C77.1717 22.7216 76.6206 24.0599 75.5185 25.162ZM68.1543 21.1471C68.1543 22.1205 68.4763 22.9292 69.1204 23.5733C69.7645 24.2174 70.5589 24.5394 71.5036 24.5394C72.4483 24.5394 73.2427 24.2174 73.8868 23.5733C74.5309 22.9292 74.8529 22.1205 74.8529 21.1471C74.8529 20.1738 74.5309 19.3651 73.8868 18.721C73.2427 18.0769 72.4483 17.7549 71.5036 17.7549C70.5589 17.7549 69.7645 18.0769 69.1204 18.721C68.4763 19.3651 68.1543 20.1738 68.1543 21.1471ZM81.5308 13.74C81.2445 14.0263 80.901 14.1694 80.5002 14.1694C80.0994 14.1694 79.7488 14.0263 79.4482 13.74C79.1619 13.4394 79.0188 13.0887 79.0188 12.688C79.0188 12.2872 79.1619 11.9437 79.4482 11.6574C79.7488 11.3568 80.0994 11.2065 80.5002 11.2065C80.901 11.2065 81.2445 11.3568 81.5308 11.6574C81.8314 11.9437 81.9817 12.2872 81.9817 12.688C81.9817 13.0887 81.8314 13.4394 81.5308 13.74ZM79.3408 26.944V15.7796H81.6596V26.944C81.6596 29.9212 80.1925 31.3025 77.2582 31.0878V28.8549C77.9739 28.9264 78.4964 28.8119 78.8256 28.5114C79.1691 28.2108 79.3408 27.6883 79.3408 26.944ZM94.7333 22.1348H86.1883C86.36 22.9363 86.7465 23.5589 87.3476 24.0027C87.9631 24.4464 88.7217 24.6682 89.6235 24.6682C90.8401 24.6682 91.7633 24.2245 92.3931 23.3371L94.3039 24.4535C93.2591 26.0137 91.6917 26.7938 89.602 26.7938C87.8701 26.7938 86.4602 26.2642 85.3724 25.205C84.2989 24.1315 83.7622 22.7789 83.7622 21.1471C83.7622 19.5584 84.2917 18.2201 85.3509 17.1323C86.3958 16.0444 87.7556 15.5005 89.4302 15.5005C90.9904 15.5005 92.2786 16.0516 93.2948 17.1537C94.3111 18.2558 94.8192 19.5941 94.8192 21.1686C94.8192 21.4549 94.7906 21.7769 94.7333 22.1348ZM86.1668 20.2454H92.479C92.3215 19.4009 91.9637 18.7497 91.4055 18.2916C90.8616 17.8336 90.196 17.6046 89.4088 17.6046C88.55 17.6046 87.8343 17.8408 87.2618 18.3131C86.6892 18.7854 86.3242 19.4295 86.1668 20.2454ZM101.864 26.7938C100.246 26.7938 98.8935 26.2499 97.8057 25.162C96.7322 24.0599 96.1955 22.7216 96.1955 21.1471C96.1955 19.5441 96.7322 18.2058 97.8057 17.1323C98.8935 16.0444 100.246 15.5005 101.864 15.5005C102.908 15.5005 103.86 15.751 104.719 16.252C105.578 16.7529 106.222 17.4257 106.651 18.2702L104.655 19.4295C104.411 18.9143 104.039 18.5135 103.538 18.2272C103.052 17.9266 102.486 17.7764 101.842 17.7764C100.897 17.7764 100.103 18.0984 99.4589 18.7425C98.8291 19.4009 98.5142 20.2025 98.5142 21.1471C98.5142 22.0918 98.8291 22.8934 99.4589 23.5518C100.103 24.1959 100.897 24.5179 101.842 24.5179C102.472 24.5179 103.037 24.3748 103.538 24.0885C104.053 23.788 104.44 23.38 104.698 22.8647L106.694 24.0027C106.236 24.8615 105.571 25.5413 104.698 26.0423C103.839 26.5433 102.894 26.7938 101.864 26.7938ZM114.36 15.7796V18.0125H111.698V23.1653C111.698 23.609 111.798 23.9311 111.999 24.1315C112.199 24.3176 112.493 24.4249 112.879 24.4535C113.28 24.4678 113.774 24.4607 114.36 24.4321V26.5146C112.586 26.7293 111.312 26.5791 110.539 26.0638C109.766 25.5342 109.379 24.568 109.379 23.1653V18.0125H107.404V15.7796H109.379V13.4609L111.698 12.7738V15.7796H114.36ZM134.646 24.5394C133.143 26.0423 131.304 26.7938 129.128 26.7938C126.953 26.7938 125.106 26.0423 123.589 24.5394C122.086 23.0222 121.335 21.1758 121.335 19.0001C121.335 16.8245 122.086 14.9853 123.589 13.4823C125.106 11.9651 126.953 11.2065 129.128 11.2065C131.304 11.2065 133.143 11.9651 134.646 13.4823C136.163 14.9853 136.922 16.8245 136.922 19.0001C136.922 21.1758 136.163 23.0222 134.646 24.5394ZM125.328 22.8647C126.373 23.881 127.64 24.3891 129.128 24.3891C130.631 24.3891 131.891 23.881 132.907 22.8647C133.938 21.8342 134.453 20.546 134.453 19.0001C134.453 17.4543 133.938 16.1733 132.907 15.157C131.891 14.1265 130.631 13.6112 129.128 13.6112C127.625 13.6112 126.359 14.1265 125.328 15.157C124.312 16.1733 123.804 17.4543 123.804 19.0001C123.804 20.5317 124.312 21.8199 125.328 22.8647ZM144.091 26.7938C142.473 26.7938 141.121 26.2499 140.033 25.162C138.959 24.0599 138.423 22.7216 138.423 21.1471C138.423 19.5441 138.959 18.2058 140.033 17.1323C141.121 16.0444 142.473 15.5005 144.091 15.5005C145.136 15.5005 146.087 15.751 146.946 16.252C147.805 16.7529 148.449 17.4257 148.879 18.2702L146.882 19.4295C146.638 18.9143 146.266 18.5135 145.765 18.2272C145.279 17.9266 144.713 17.7764 144.069 17.7764C143.125 17.7764 142.33 18.0984 141.686 18.7425C141.056 19.4009 140.741 20.2025 140.741 21.1471C140.741 22.0918 141.056 22.8934 141.686 23.5518C142.33 24.1959 143.125 24.5179 144.069 24.5179C144.699 24.5179 145.264 24.3748 145.765 24.0885C146.281 23.788 146.667 23.38 146.925 22.8647L148.921 24.0027C148.463 24.8615 147.798 25.5413 146.925 26.0423C146.066 26.5433 145.121 26.7938 144.091 26.7938ZM156.588 15.7796V18.0125H153.925V23.1653C153.925 23.609 154.026 23.9311 154.226 24.1315C154.426 24.3176 154.72 24.4249 155.106 24.4535C155.507 24.4678 156.001 24.4607 156.588 24.4321V26.5146C154.813 26.7293 153.539 26.5791 152.766 26.0638C151.993 25.5342 151.607 24.568 151.607 23.1653V18.0125H149.631V15.7796H151.607V13.4609L153.925 12.7738V15.7796H156.588ZM167.332 25.162C166.244 26.2499 164.906 26.7938 163.317 26.7938C161.728 26.7938 160.39 26.2499 159.302 25.162C158.2 24.0599 157.649 22.7216 157.649 21.1471C157.649 19.5727 158.2 18.2344 159.302 17.1323C160.39 16.0444 161.728 15.5005 163.317 15.5005C164.906 15.5005 166.244 16.0444 167.332 17.1323C168.434 18.2344 168.985 19.5727 168.985 21.1471C168.985 22.7216 168.434 24.0599 167.332 25.162ZM159.968 21.1471C159.968 22.1205 160.29 22.9292 160.934 23.5733C161.578 24.2174 162.373 24.5394 163.317 24.5394C164.262 24.5394 165.056 24.2174 165.7 23.5733C166.345 22.9292 166.667 22.1205 166.667 21.1471C166.667 20.1738 166.345 19.3651 165.7 18.721C165.056 18.0769 164.262 17.7549 163.317 17.7549C162.373 17.7549 161.578 18.0769 160.934 18.721C160.29 19.3651 159.968 20.1738 159.968 21.1471ZM177.158 15.5005C178.618 15.5005 179.878 16.0516 180.937 17.1537C181.982 18.2415 182.504 19.5727 182.504 21.1471C182.504 22.7359 181.982 24.0742 180.937 25.162C179.892 26.2499 178.632 26.7938 177.158 26.7938C175.541 26.7938 174.288 26.1926 173.401 24.9903V30.8087H171.082V15.7796H173.401V17.3255C174.274 16.1088 175.526 15.5005 177.158 15.5005ZM174.367 23.6162C175.011 24.2603 175.82 24.5823 176.793 24.5823C177.766 24.5823 178.575 24.2603 179.219 23.6162C179.863 22.9578 180.185 22.1348 180.185 21.1471C180.185 20.1595 179.863 19.3437 179.219 18.6996C178.575 18.0411 177.766 17.7119 176.793 17.7119C175.82 17.7119 175.011 18.0411 174.367 18.6996C173.723 19.3437 173.401 20.1595 173.401 21.1471C173.401 22.1205 173.723 22.9435 174.367 23.6162ZM191.841 21.5336V15.7796H194.16V26.5146H191.841V25.1406C191.125 26.2427 190.016 26.7938 188.513 26.7938C187.268 26.7938 186.266 26.4001 185.507 25.6129C184.763 24.8114 184.391 23.7307 184.391 22.3709V15.7796H186.71V22.1348C186.71 22.9363 186.924 23.5518 187.354 23.9812C187.783 24.4106 188.37 24.6253 189.114 24.6253C189.959 24.6253 190.624 24.3676 191.111 23.8524C191.598 23.3228 191.841 22.5499 191.841 21.5336ZM198.891 18.7425C198.891 19.0717 199.063 19.3437 199.406 19.5584C199.75 19.7588 200.251 19.952 200.909 20.1381C201.41 20.2526 201.847 20.3742 202.219 20.503C202.591 20.6319 202.985 20.8251 203.4 21.0827C203.815 21.3261 204.13 21.6553 204.344 22.0704C204.573 22.4711 204.681 22.9435 204.666 23.4874C204.666 24.5179 204.266 25.3266 203.464 25.9135C202.662 26.5003 201.668 26.7938 200.48 26.7938C199.42 26.7938 198.512 26.5719 197.753 26.1282C196.994 25.6845 196.443 25.069 196.1 24.2818L198.097 23.1224C198.454 24.1529 199.249 24.6682 200.48 24.6682C201.696 24.6682 202.305 24.2675 202.305 23.4659C202.305 22.8791 201.625 22.421 200.265 22.0918C199.75 21.963 199.313 21.8342 198.955 21.7054C198.612 21.5765 198.225 21.3905 197.796 21.1471C197.381 20.9038 197.059 20.5818 196.83 20.181C196.615 19.7802 196.515 19.315 196.529 18.7854C196.529 17.7978 196.901 17.0034 197.646 16.4023C198.404 15.8011 199.342 15.5005 200.458 15.5005C201.346 15.5005 202.133 15.7009 202.82 16.1017C203.521 16.4882 204.058 17.0321 204.43 17.7334L202.476 18.8284C202.119 18.0125 201.446 17.6046 200.458 17.6046C200 17.6046 199.621 17.7048 199.32 17.9052C199.034 18.1056 198.891 18.3847 198.891 18.7425Z" fill="#017BFF"/>
<path opacity="0.65" d="M16.0097 24.0004C14.1613 24.8867 12.7193 26.4821 12.0341 28.434C11.9724 28.6093 11.9166 28.7886 11.8668 28.9698C10.8451 31.8459 8.09845 33.9074 4.86983 33.9074C4.8041 33.9074 4.74036 33.9074 4.67464 33.9054C4.62683 33.9074 4.57704 33.9074 4.52924 33.9074C2.83824 33.9074 1.27472 33.3676 0 32.4514C1.84834 31.5651 3.29037 29.9697 3.97553 28.0178C4.03728 27.8425 4.09304 27.6632 4.14284 27.482C5.16461 24.6059 7.91123 22.5444 11.1399 22.5444C11.2056 22.5444 11.2693 22.5444 11.335 22.5464C11.3828 22.5444 11.4326 22.5444 11.4804 22.5444C13.1714 22.5424 14.733 23.0842 16.0097 24.0004Z" fill="#017BFF"/>
<path opacity="0.65" d="M22.2638 24.0004C24.1121 24.8867 25.5542 26.4821 26.2393 28.434C26.3011 28.6093 26.3568 28.7886 26.4066 28.9698C27.4284 31.8459 30.175 33.9074 33.4036 33.9074C33.4694 33.9074 33.5331 33.9074 33.5988 33.9054C33.6466 33.9074 33.6964 33.9074 33.7442 33.9074C35.4352 33.9074 36.9988 33.3676 38.2735 32.4514C36.4251 31.5651 34.9831 29.9697 34.2979 28.0178C34.2362 27.8425 34.1804 27.6632 34.1306 27.482C33.1089 24.6059 30.3622 22.5444 27.1336 22.5444C27.0679 22.5444 27.0042 22.5444 26.9384 22.5464C26.8906 22.5444 26.8408 22.5444 26.793 22.5444C25.102 22.5424 23.5385 23.0842 22.2638 24.0004Z" fill="#017BFF"/>
<path opacity="0.65" d="M23.3791 33.3138C23.3034 36.4707 21.6343 39.2114 19.1606 40.7928C16.5096 39.1397 14.7747 36.17 14.8564 32.8198C14.9321 29.6629 16.6012 26.9223 19.0749 25.3408C21.7259 26.994 23.4588 29.9677 23.3791 33.3138Z" fill="#017BFF"/>
<path d="M29.5535 10.4388C29.5535 10.7315 29.5416 11.0203 29.5177 11.3092C29.5017 11.4984 29.4818 11.6876 29.4559 11.8708C29.436 12.0102 29.4141 12.1457 29.3902 12.2811C29.3703 12.4006 29.3464 12.5181 29.3225 12.6357C29.1631 13.3726 28.9261 14.0837 28.6234 14.7529C28.5955 14.8126 28.5676 14.8704 28.5397 14.9302C28.0976 15.8543 27.5239 16.7048 26.8427 17.4557C26.785 17.5214 26.7252 17.5852 26.6635 17.6489C26.5838 17.7325 26.5022 17.8142 26.4205 17.8939C26.3289 17.9855 26.2353 18.0731 26.1397 18.1608C26.068 18.2265 25.9963 18.2902 25.9226 18.352C25.7991 18.4595 25.6716 18.5631 25.5421 18.6647C25.4426 18.7444 25.341 18.82 25.2374 18.8937C25.1438 18.9634 25.0482 19.0292 24.9506 19.0949C24.7833 19.2084 24.61 19.318 24.4367 19.4215C24.363 19.4674 24.2873 19.5112 24.2097 19.555C23.9985 19.6705 23.7834 19.7821 23.5663 19.8856C23.4488 19.9414 23.3293 19.9952 23.2078 20.047C23.1042 20.0908 22.9987 20.1346 22.8911 20.1744C22.8752 20.1824 22.8593 20.1884 22.8433 20.1943C22.8334 20.1824 22.8254 20.1704 22.8154 20.1585C22.8154 20.1585 22.8154 20.1565 22.8134 20.1565C22.0406 19.067 21.5845 17.7385 21.5845 16.3005C21.5845 15.8065 21.6383 15.3285 21.7419 14.8644V14.8624C21.7498 14.8206 21.7598 14.7788 21.7698 14.7389C21.8494 14.6911 21.9271 14.6394 22.0028 14.5856C22.0805 14.5318 22.1542 14.478 22.2279 14.4183C22.3016 14.3625 22.3733 14.3027 22.443 14.241C22.447 14.239 22.449 14.237 22.4509 14.235C22.5147 14.1793 22.5764 14.1215 22.6362 14.0617C22.6541 14.0458 22.67 14.0299 22.688 14.012C22.7378 13.9622 22.7875 13.9124 22.8354 13.8586C22.8413 13.8506 22.8493 13.8446 22.8553 13.8367C22.913 13.7729 22.9708 13.7072 23.0246 13.6395C23.0863 13.5678 23.1421 13.4941 23.1959 13.4184C23.2536 13.3427 23.3054 13.265 23.3552 13.1874C23.4289 13.0758 23.4966 12.9643 23.5584 12.8488C23.6062 12.7591 23.652 12.6675 23.6958 12.5739C23.7177 12.5301 23.7376 12.4883 23.7535 12.4444C23.8113 12.315 23.8631 12.1815 23.9069 12.0461C23.9288 11.9844 23.9467 11.9206 23.9667 11.8549C24.0563 11.5502 24.118 11.2355 24.1459 10.9088C24.1619 10.7554 24.1698 10.5981 24.1698 10.4388C24.1698 10.0902 24.134 9.74961 24.0663 9.42097C23.9985 9.09233 23.8989 8.77565 23.7715 8.4729C23.6759 8.24584 23.5643 8.02675 23.4369 7.81961C23.3512 7.68218 23.2616 7.54674 23.164 7.41727C23.0166 7.22208 22.8573 7.03685 22.686 6.86755C21.7737 5.95334 20.509 5.38768 19.1168 5.38768C17.7205 5.38768 16.4618 5.95135 15.5475 6.86755C15.3763 7.03884 15.2169 7.22407 15.0695 7.41727C14.9719 7.54674 14.8823 7.68218 14.7967 7.81961C14.6712 8.02874 14.5576 8.24783 14.462 8.4729C14.3346 8.77565 14.235 9.09233 14.1673 9.42097C14.0995 9.74961 14.0637 10.0902 14.0637 10.4388C14.0637 10.5981 14.0717 10.7554 14.0876 10.9088C14.1155 11.2355 14.1772 11.5502 14.2668 11.8549C14.2868 11.9206 14.3047 11.9844 14.3266 12.0461C14.3704 12.1815 14.4222 12.315 14.48 12.4444C14.4959 12.4883 14.5158 12.5301 14.5377 12.5739C14.5796 12.6655 14.6254 12.7572 14.6752 12.8488C14.7369 12.9643 14.8046 13.0758 14.8783 13.1874C14.9281 13.265 14.9799 13.3427 15.0377 13.4184C15.0914 13.4941 15.1472 13.5678 15.2089 13.6395C15.2627 13.7072 15.3205 13.7729 15.3782 13.8367C15.3842 13.8446 15.3902 13.8526 15.3982 13.8586C15.446 13.9124 15.4958 13.9622 15.5456 14.012C15.5615 14.0299 15.5794 14.0458 15.5973 14.0617C15.6571 14.1215 15.7188 14.1793 15.7826 14.235C15.7846 14.237 15.7866 14.239 15.7905 14.241C15.8602 14.3027 15.9319 14.3625 16.0056 14.4183C16.0793 14.478 16.153 14.5318 16.2307 14.5856C16.3064 14.6394 16.3841 14.6911 16.4637 14.7389C16.4737 14.7788 16.4837 14.8206 16.4916 14.8624V14.8644C16.5952 15.3285 16.649 15.8065 16.649 16.3005C16.649 17.7405 16.1929 19.067 15.4201 20.1565C15.4181 20.1565 15.4181 20.1585 15.4181 20.1585C15.4081 20.1704 15.4002 20.1824 15.3902 20.1943C15.3743 20.1884 15.3583 20.1824 15.3424 20.1744C15.2348 20.1346 15.1293 20.0908 15.0257 20.047C14.9042 19.9952 14.7847 19.9414 14.6672 19.8856C14.4461 19.7821 14.231 19.6725 14.0239 19.555C13.9462 19.5112 13.8705 19.4674 13.7968 19.4215C13.6195 19.318 13.4482 19.2084 13.2829 19.0949C13.1853 19.0292 13.0897 18.9634 12.9961 18.8937C12.8925 18.82 12.791 18.7444 12.6914 18.6647C12.5619 18.5651 12.4364 18.4615 12.3129 18.352C12.2392 18.2902 12.1656 18.2265 12.0939 18.1608C11.9982 18.0731 11.9046 17.9855 11.813 17.8939C11.7294 17.8142 11.6477 17.7325 11.57 17.6489C11.5083 17.5852 11.4485 17.5214 11.3908 17.4557C10.7076 16.7048 10.134 15.8563 9.69379 14.9302C9.66591 14.8704 9.63802 14.8126 9.61014 14.7529C9.3054 14.0837 9.07038 13.3726 8.91303 12.6357C8.88713 12.5181 8.86323 12.4006 8.84332 12.2811C8.81942 12.1457 8.79751 12.0083 8.77759 11.8708C8.7517 11.6856 8.73178 11.4964 8.71584 11.3092C8.69194 11.0203 8.67999 10.7315 8.67999 10.4388C8.67999 10.2993 8.68198 10.1619 8.68995 10.0245C8.69194 9.95277 8.69393 9.88107 8.69991 9.81136C8.69991 9.77949 8.7019 9.74762 8.70589 9.71774C8.70987 9.64803 8.71385 9.57832 8.72182 9.50861V9.49268C8.72979 9.41101 8.73775 9.32935 8.74771 9.24769C8.78755 8.89714 8.84332 8.55257 8.919 8.21198C8.93095 8.14825 8.94689 8.08451 8.96083 8.02277C8.96481 8.00882 8.9668 7.99687 8.97079 7.98293C8.98672 7.91123 9.00465 7.84152 9.02457 7.76981C9.04448 7.69014 9.06639 7.61047 9.09029 7.5308C9.1859 7.19818 9.29943 6.87353 9.4269 6.55485C9.48068 6.41941 9.53844 6.28397 9.59819 6.15052C9.69778 5.92944 9.80533 5.71034 9.92085 5.49723C9.9587 5.42752 9.99853 5.35581 10.0384 5.2861C10.0782 5.2144 10.12 5.14469 10.1619 5.07697C10.1917 5.02717 10.2216 4.97738 10.2535 4.92759C10.3092 4.83597 10.367 4.74435 10.4268 4.65472C10.5144 4.52525 10.604 4.39579 10.6956 4.27031C10.7434 4.20657 10.7912 4.14085 10.841 4.07711C10.8908 4.01337 10.9406 3.95163 10.9904 3.88789C11.0402 3.82615 11.092 3.76441 11.1438 3.70266C11.1936 3.64092 11.2474 3.58116 11.3011 3.51942C11.3788 3.43178 11.4565 3.34614 11.5362 3.26249C11.6158 3.17684 11.6975 3.09518 11.7811 3.01352C11.8628 2.93185 11.9465 2.85019 12.0321 2.77052C12.1178 2.69085 12.2054 2.61317 12.293 2.53749C12.305 2.52554 12.3189 2.51359 12.3309 2.50562C12.6973 2.19292 13.0818 1.9061 13.4901 1.64319C13.4921 1.63921 13.4941 1.63722 13.498 1.63722C13.7609 1.47589 14.0358 1.31655 14.3206 1.16716C14.3923 1.13131 14.466 1.09347 14.5377 1.05762C14.7469 0.954048 14.958 0.860436 15.1731 0.772799C15.2109 0.756865 15.2508 0.740931 15.2906 0.724997C15.4081 0.679186 15.5276 0.635368 15.6471 0.59155C15.7308 0.561673 15.8164 0.533789 15.9001 0.507896C15.9738 0.483995 16.0475 0.460094 16.1212 0.438185C16.1291 0.434201 16.1371 0.43221 16.1451 0.430218C16.2208 0.408309 16.2964 0.386399 16.3721 0.366482C16.4518 0.344573 16.5315 0.324655 16.6111 0.304738C16.6848 0.286812 16.7585 0.268886 16.8322 0.252952C16.9199 0.233035 17.0095 0.213117 17.0991 0.197183C17.1808 0.179257 17.2624 0.165315 17.3461 0.151373C17.4278 0.137431 17.5114 0.123488 17.5951 0.111538C17.6767 0.0995874 17.7604 0.087637 17.846 0.0776782C18.091 0.047802 18.338 0.0258927 18.585 0.0139422C18.6547 0.00995875 18.7224 0.007967 18.7921 0.00597525C18.9016 0.00199175 19.0132 0 19.1227 0C19.2343 0 19.3438 0.00199175 19.4534 0.00597525C19.5231 0.007967 19.5908 0.00995875 19.6605 0.0139422C19.9115 0.0258927 20.1584 0.047802 20.3994 0.0776782C20.4851 0.087637 20.5687 0.0995874 20.6504 0.111538C20.7341 0.123488 20.8177 0.137431 20.8994 0.151373C20.983 0.165315 21.0647 0.179257 21.1463 0.197183C21.236 0.213117 21.3256 0.233035 21.4132 0.252952C21.4869 0.268886 21.5606 0.286812 21.6343 0.304738C21.714 0.324655 21.7937 0.344573 21.8733 0.366482C21.949 0.386399 22.0247 0.408309 22.1004 0.430218C22.1084 0.43221 22.1163 0.436193 22.1243 0.438185C22.198 0.460094 22.2717 0.483995 22.3454 0.507896C22.431 0.533789 22.5147 0.563665 22.5983 0.59155C22.7178 0.635368 22.8373 0.679186 22.9549 0.724997C22.9947 0.740931 23.0345 0.756865 23.0724 0.772799C23.2895 0.860436 23.5006 0.95604 23.7077 1.05762C23.7794 1.09347 23.8531 1.13131 23.9248 1.16716C24.2097 1.31655 24.4845 1.47589 24.7534 1.64718C24.7574 1.65116 24.7594 1.65116 24.7614 1.65315C25.1697 1.91606 25.5541 2.20287 25.9206 2.51558C25.9325 2.52753 25.9465 2.53749 25.9584 2.54745C26.0461 2.62313 26.1337 2.70081 26.2193 2.78048C26.305 2.86015 26.3886 2.94181 26.4703 3.02348C26.5539 3.10514 26.6356 3.18879 26.7153 3.27244C26.7949 3.3561 26.8726 3.44174 26.9503 3.52938C27.0041 3.58913 27.0559 3.65088 27.1077 3.71262C27.1594 3.77436 27.2112 3.83611 27.261 3.89785C27.3108 3.96159 27.3606 4.02333 27.4104 4.08707C27.4602 4.1508 27.508 4.21653 27.5558 4.28027C27.6474 4.40575 27.737 4.53521 27.8247 4.66468C27.8824 4.7543 27.9422 4.84593 27.998 4.93755C28.0298 4.98734 28.0597 5.03713 28.0896 5.08693C28.1314 5.15465 28.1732 5.22436 28.2131 5.29606C28.2529 5.36577 28.2908 5.43747 28.3306 5.50719C28.4461 5.7203 28.5537 5.9394 28.6532 6.16048C28.713 6.29393 28.7708 6.42937 28.8245 6.56481C28.952 6.88348 29.0655 7.20814 29.1611 7.54076C29.185 7.62043 29.207 7.7001 29.2269 7.77977C29.2468 7.85148 29.2647 7.92119 29.2807 7.99289C29.2846 8.00484 29.2866 8.01878 29.2906 8.03272C29.3046 8.09447 29.3205 8.1582 29.3324 8.22194C29.4061 8.56054 29.4639 8.90511 29.5037 9.25765C29.5137 9.33931 29.5217 9.42097 29.5296 9.50263V9.51857C29.5376 9.58828 29.5416 9.65799 29.5456 9.7277C29.5475 9.73965 29.5495 9.7536 29.5495 9.76555C29.5515 9.78347 29.5515 9.80339 29.5515 9.82131C29.5575 9.89103 29.5595 9.96273 29.5615 10.0344C29.5515 10.1619 29.5535 10.2993 29.5535 10.4388Z" fill="#017BFF"/>
</svg>
