<svg width="111" height="111" viewBox="0 0 111 111" fill="none" xmlns="http://www.w3.org/2000/svg">
<g clip-path="url(#clip0_857_3768)">
<path d="M110.5 84.4927H0.5V84.5477H110.5V84.4927Z" fill="#EBEBEB"/>
<path d="M99.478 88.0327H95.0626V88.0877H99.478V88.0327Z" fill="#EBEBEB"/>
<path d="M86.19 87.2627H79.1456V87.3177H86.19V87.2627Z" fill="#EBEBEB"/>
<path d="M68.9574 85.9912H60.8218V86.0462H68.9574V85.9912Z" fill="#EBEBEB"/>
<path d="M26.603 87.6104H17.1012V87.6654H26.603V87.6104Z" fill="#EBEBEB"/>
<path d="M15.141 87.6104H13.7484V87.6654H15.141V87.6104Z" fill="#EBEBEB"/>
<path d="M37.7306 85.9624H29.485V86.0174H37.7306V85.9624Z" fill="#EBEBEB"/>
<path d="M52.64 74.6808H10.1602C9.82741 74.6803 9.50846 74.5477 9.27335 74.3121C9.03824 74.0766 8.9062 73.7574 8.9062 73.4246V13.71C8.90909 13.3792 9.04242 13.0628 9.27721 12.8297C9.51201 12.5965 9.82931 12.4654 10.1602 12.4648H52.64C52.9732 12.4648 53.2927 12.5972 53.5283 12.8328C53.7639 13.0684 53.8962 13.3879 53.8962 13.721V73.4246C53.8962 73.7578 53.7639 74.0773 53.5283 74.3129C53.2927 74.5485 52.9732 74.6808 52.64 74.6808ZM10.1602 12.5088C9.842 12.5094 9.53704 12.6362 9.31224 12.8614C9.08745 13.0866 8.9612 13.3918 8.9612 13.71V73.4246C8.9612 73.7428 9.08745 74.048 9.31224 74.2732C9.53704 74.4985 9.842 74.6253 10.1602 74.6258H52.64C52.9584 74.6253 53.2636 74.4985 53.4887 74.2734C53.7139 74.0482 53.8406 73.743 53.8412 73.4246V13.71C53.8406 13.3916 53.7139 13.0865 53.4887 12.8613C53.2636 12.6362 52.9584 12.5094 52.64 12.5088H10.1602Z" fill="#EBEBEB"/>
<path d="M100.228 74.6808H57.7462C57.4132 74.6803 57.094 74.5477 56.8586 74.3123C56.6231 74.0768 56.4906 73.7576 56.49 73.4246V13.71C56.4935 13.379 56.6273 13.0626 56.8624 12.8295C57.0976 12.5964 57.4151 12.4654 57.7462 12.4648H100.228C100.559 12.466 100.875 12.5973 101.11 12.8304C101.344 13.0635 101.477 13.3795 101.48 13.71V73.4246C101.48 73.757 101.348 74.0759 101.114 74.3114C100.879 74.5468 100.561 74.6797 100.228 74.6808ZM57.7462 12.5088C57.4278 12.5094 57.1226 12.6362 56.8975 12.8613C56.6723 13.0865 56.5456 13.3916 56.545 13.71V73.4246C56.5456 73.743 56.6723 74.0482 56.8975 74.2734C57.1226 74.4985 57.4278 74.6253 57.7462 74.6258H100.228C100.547 74.6253 100.852 74.4985 101.077 74.2734C101.302 74.0482 101.429 73.743 101.429 73.4246V13.71C101.429 13.3916 101.302 13.0865 101.077 12.8613C100.852 12.6362 100.547 12.5094 100.228 12.5088H57.7462Z" fill="#EBEBEB"/>
<path d="M28.66 63.518C26.5018 56.5484 21.4 36.8232 26.5436 19.6808C26.5631 19.6301 26.5617 19.5736 26.5397 19.5239C26.5176 19.4742 26.4767 19.4353 26.4259 19.4157C26.3751 19.3962 26.3187 19.3976 26.269 19.4197C26.2193 19.4418 26.1803 19.4827 26.1608 19.5334C25.8011 20.3083 25.496 21.1074 25.2478 21.9248C25.2337 21.9694 25.2047 22.0078 25.1658 22.0336C25.1268 22.0594 25.0802 22.0711 25.0336 22.0668C24.9871 22.0624 24.9434 22.0422 24.9099 22.0096C24.8765 21.977 24.8552 21.9339 24.8496 21.8874C24.6377 19.8988 24.5642 17.8979 24.6296 15.899C24.6304 15.8484 24.6126 15.7993 24.5796 15.7609C24.5466 15.7225 24.5007 15.6976 24.4505 15.6908C24.4004 15.6841 24.3495 15.6959 24.3075 15.7241C24.2655 15.7524 24.2353 15.795 24.2226 15.844C23.7854 17.6266 23.5813 19.4584 23.6154 21.2934C23.62 21.3469 23.6034 21.4 23.5691 21.4414C23.5349 21.4827 23.4858 21.5089 23.4324 21.5144C23.3791 21.5199 23.3257 21.5042 23.2838 21.4707C23.2419 21.4372 23.2148 21.3885 23.2084 21.3352C23.0676 20.5718 22.94 19.7534 22.8322 18.8866C22.825 18.8375 22.8003 18.7927 22.7628 18.7602C22.7252 18.7278 22.6772 18.7099 22.6276 18.7099C22.578 18.7099 22.53 18.7278 22.4924 18.7602C22.4549 18.7927 22.4302 18.8375 22.423 18.8866C22.1504 22.2274 22.6526 25.5859 23.8904 28.7008C23.8904 28.7008 23.8904 28.7206 23.8904 28.7316C22.5018 25.6566 21.4208 22.4517 20.663 19.1638C20.6526 19.1144 20.6242 19.0705 20.5834 19.0407C20.5425 19.0109 20.4921 18.9973 20.4418 19.0025C20.3915 19.0077 20.3449 19.0313 20.311 19.0688C20.2771 19.1064 20.2583 19.1551 20.2582 19.2056C20.2165 20.8424 20.3322 22.4794 20.6036 24.094C20.6132 24.1458 20.6024 24.1993 20.5735 24.2433C20.5447 24.2874 20.4999 24.3186 20.4487 24.3305C20.3974 24.3424 20.3434 24.3341 20.2981 24.3072C20.2528 24.2804 20.2196 24.2371 20.2054 24.1864C20.1108 23.8828 20.0184 23.577 19.9304 23.2624C19.9162 23.2151 19.8854 23.1745 19.8438 23.1478C19.8022 23.1212 19.7524 23.1104 19.7035 23.1173C19.6545 23.1242 19.6097 23.1484 19.5771 23.1855C19.5444 23.2227 19.5262 23.2702 19.5256 23.3196C19.5296 25.4424 19.7754 27.5577 20.2582 29.6248C20.2708 29.6754 20.2637 29.7288 20.2383 29.7743C20.2129 29.8197 20.1711 29.8538 20.1214 29.8695C20.0718 29.8852 20.018 29.8814 19.971 29.8588C19.9241 29.8363 19.8875 29.7966 19.8688 29.748C19.0856 27.7746 18.298 25.5768 17.6116 23.2448C17.5973 23.1974 17.5664 23.1566 17.5245 23.13C17.4827 23.1034 17.4326 23.0927 17.3836 23.0999C17.3345 23.1071 17.2897 23.1317 17.2572 23.1692C17.2248 23.2067 17.2069 23.2546 17.2068 23.3042C17.33 31.3848 21.7674 39.0848 23.325 41.529C20.3098 36.9616 17.71 32.1331 15.5568 27.1014C15.5364 27.0571 15.501 27.0214 15.4568 27.0006C15.4126 26.9799 15.3625 26.9754 15.3153 26.9881C15.2682 27.0007 15.227 27.0296 15.1992 27.0697C15.1713 27.1098 15.1585 27.1584 15.163 27.207C15.522 29.8692 16.2131 32.476 17.22 34.9664C17.2392 35.0148 17.2393 35.0688 17.2201 35.1172C17.2009 35.1656 17.164 35.2049 17.1169 35.2271C17.0698 35.2493 17.016 35.2526 16.9664 35.2365C16.9169 35.2203 16.8754 35.1859 16.8504 35.1402C16.3224 34.1634 15.8054 33.1602 15.3104 32.1108C15.2883 32.0676 15.2517 32.0336 15.207 32.0147C15.1623 31.9958 15.1124 31.9932 15.066 32.0073C15.0196 32.0215 14.9796 32.0515 14.9531 32.0921C14.9266 32.1328 14.9152 32.1815 14.921 32.2296C15.4996 36.0268 16.989 39.9032 18.617 43.2494C18.6363 43.2968 18.6373 43.3497 18.6199 43.3978C18.6025 43.4459 18.5679 43.4858 18.5228 43.5099C18.4777 43.534 18.4252 43.5405 18.3755 43.5281C18.3259 43.5158 18.2826 43.4855 18.254 43.443C17.4304 42.0377 16.6792 40.5911 16.0034 39.109C15.9842 39.0637 15.9493 39.0269 15.9051 39.0052C15.8609 38.9836 15.8104 38.9785 15.7628 38.9911C15.7152 39.0037 15.6738 39.033 15.646 39.0736C15.6183 39.1143 15.6061 39.1636 15.6118 39.2124C15.8622 41.8181 16.5947 44.3545 17.7722 46.6924C17.7976 46.7393 17.8037 46.7942 17.7892 46.8455C17.7747 46.8968 17.7408 46.9404 17.6946 46.967C17.6485 46.9937 17.5938 47.0013 17.5421 46.9882C17.4904 46.9752 17.4459 46.9424 17.418 46.897C16.7052 45.8344 16.0012 44.7124 15.3258 43.5398C15.3008 43.499 15.2624 43.468 15.2171 43.4523C15.1719 43.4366 15.1225 43.4371 15.0776 43.4537C15.0327 43.4704 14.9949 43.5021 14.9708 43.5435C14.9466 43.5848 14.9376 43.6333 14.9452 43.6806C15.5414 46.963 17.0154 49.977 18.7094 52.5334C18.738 52.5768 18.749 52.6294 18.7402 52.6806C18.7314 52.7318 18.7034 52.7778 18.662 52.8091C18.6206 52.8405 18.5688 52.8549 18.5171 52.8494C18.4654 52.844 18.4178 52.8191 18.3838 52.7798C17.139 51.3426 15.9706 49.8409 14.8836 48.2808C14.8567 48.24 14.816 48.2101 14.7689 48.1967C14.7219 48.1832 14.6715 48.1871 14.6271 48.2076C14.5826 48.2281 14.547 48.2638 14.5267 48.3084C14.5063 48.3529 14.5026 48.4032 14.5162 48.4502C16.7734 57.0808 26.2554 63.9888 26.4358 64.1208L27.1904 64.6092C27.3569 64.7216 27.5542 64.7796 27.755 64.7751C27.9559 64.7706 28.1503 64.7038 28.3116 64.5841C28.4729 64.4643 28.5931 64.2974 28.6555 64.1065C28.7179 63.9155 28.7194 63.7099 28.66 63.518Z" fill="#F5F5F5"/>
<path d="M32.037 59.3952C31.6388 53.4222 31.3132 36.711 38.6722 24.0038C38.6973 23.967 38.7068 23.9218 38.6985 23.8781C38.6902 23.8343 38.665 23.7957 38.6282 23.7706C38.5914 23.7455 38.5462 23.736 38.5025 23.7443C38.4588 23.7525 38.4201 23.7778 38.395 23.8146C37.963 24.3632 37.5704 24.9418 37.2202 25.546C37.2 25.5784 37.1695 25.603 37.1335 25.6159C37.0976 25.6287 37.0584 25.6291 37.0222 25.6168C36.986 25.6046 36.9551 25.5805 36.9343 25.5485C36.9135 25.5165 36.9042 25.4784 36.9078 25.4404C37.1161 23.8127 37.4366 22.2014 37.867 20.618C37.8759 20.5784 37.8702 20.537 37.8511 20.5012C37.832 20.4654 37.8007 20.4377 37.7629 20.4231C37.7251 20.4084 37.6832 20.4078 37.645 20.4214C37.6068 20.4349 37.5747 20.4618 37.5546 20.497C36.8669 21.8362 36.3559 23.259 36.0344 24.7298C36.0289 24.7738 36.006 24.8139 35.971 24.8411C35.9359 24.8683 35.8915 24.8805 35.8474 24.875C35.8034 24.8694 35.7633 24.8466 35.7361 24.8115C35.7088 24.7765 35.6967 24.732 35.7022 24.688C35.7352 24.0522 35.788 23.368 35.8672 22.6618C35.8733 22.6194 35.8632 22.5763 35.8388 22.5412C35.8145 22.506 35.7777 22.4813 35.7359 22.4721C35.6942 22.4629 35.6504 22.4699 35.6136 22.4916C35.5767 22.5133 35.5494 22.5482 35.5372 22.5892C34.6858 25.2045 34.4494 27.9811 34.8464 30.7028C34.8455 30.7101 34.8455 30.7175 34.8464 30.7248C34.323 28.0072 34.0702 25.2444 34.0918 22.477C34.0911 22.4364 34.0759 22.3974 34.0489 22.367C34.0219 22.3367 33.9849 22.3171 33.9447 22.3118C33.9044 22.3065 33.8636 22.3158 33.8296 22.338C33.7957 22.3602 33.7708 22.3939 33.7596 22.433C33.4145 23.729 33.1935 25.055 33.0996 26.393C33.0949 26.4343 33.0751 26.4724 33.0441 26.5001C33.013 26.5278 32.9729 26.5431 32.9313 26.5431C32.8897 26.5431 32.8496 26.5278 32.8185 26.5001C32.7875 26.4724 32.7677 26.4343 32.763 26.393C32.7454 26.1334 32.73 25.8694 32.719 25.6032C32.7157 25.5635 32.6986 25.5262 32.6706 25.498C32.6425 25.4697 32.6055 25.4521 32.5658 25.4485C32.5262 25.4448 32.4865 25.4552 32.4538 25.4779C32.421 25.5005 32.3973 25.534 32.3868 25.5724C31.9867 27.266 31.7815 28.9999 31.7752 30.7402C31.774 30.7823 31.7571 30.8226 31.7278 30.8529C31.6986 30.8833 31.659 30.9017 31.6169 30.9044C31.5748 30.9072 31.5332 30.8941 31.5002 30.8678C31.4673 30.8415 31.4453 30.8038 31.4386 30.7622C31.1878 29.044 30.9788 27.1388 30.8732 25.1434C30.8699 25.1037 30.8528 25.0664 30.8248 25.0382C30.7967 25.0099 30.7597 24.9923 30.72 24.9887C30.6804 24.985 30.6407 24.9954 30.608 25.0181C30.5752 25.0407 30.5515 25.0742 30.541 25.1126C29.1 31.6048 31.1834 38.5788 31.96 40.8448C30.4212 36.6301 29.2631 32.2861 28.4994 27.8648C28.4929 27.8251 28.4726 27.789 28.4419 27.7629C28.4113 27.7369 28.3724 27.7226 28.3322 27.7226C28.292 27.7226 28.2531 27.7369 28.2225 27.7629C28.1918 27.789 28.1715 27.8251 28.165 27.8648C27.9462 30.0558 28.0024 32.2657 28.3322 34.4428C28.3412 34.4862 28.3327 34.5315 28.3083 34.5687C28.284 34.6058 28.2459 34.6317 28.2024 34.6408C28.1589 34.6498 28.1137 34.6412 28.0765 34.6169C28.0394 34.5925 28.0134 34.5544 28.0044 34.511C27.769 33.631 27.549 32.7246 27.3444 31.8006C27.3358 31.7609 27.3132 31.7256 27.2808 31.7011C27.2484 31.6767 27.2082 31.6647 27.1677 31.6674C27.1272 31.67 27.089 31.6872 27.06 31.7157C27.0311 31.7442 27.0133 31.7821 27.01 31.8226C26.7504 34.962 27.2036 38.339 27.8658 41.3178C27.8719 41.359 27.8626 41.401 27.8396 41.4358C27.8167 41.4706 27.7817 41.4957 27.7414 41.5063C27.7011 41.517 27.6583 41.5123 27.6212 41.4934C27.584 41.4744 27.5552 41.4424 27.5402 41.4036C27.1507 40.1257 26.8262 38.829 26.5678 37.5184C26.5601 37.48 26.5394 37.4454 26.5091 37.4206C26.4788 37.3958 26.4409 37.3822 26.4017 37.3822C26.3626 37.3822 26.3246 37.3958 26.2943 37.4206C26.264 37.4454 26.2433 37.48 26.2356 37.5184C25.9393 39.6454 26.0423 41.8091 26.5392 43.8984C26.5479 43.9399 26.5406 43.9832 26.5189 44.0197C26.4972 44.0561 26.4626 44.0831 26.422 44.0953C26.3813 44.1074 26.3376 44.1039 26.2994 44.0854C26.2612 44.0668 26.2314 44.0346 26.2158 43.9952C25.8506 43.0118 25.5008 41.9822 25.184 40.9152C25.1719 40.8779 25.1472 40.8459 25.1141 40.8248C25.081 40.8037 25.0417 40.7947 25.0027 40.7994C24.9638 40.8041 24.9277 40.8221 24.9005 40.8505C24.8734 40.8788 24.857 40.9157 24.854 40.9548C24.7066 43.6894 25.3094 46.3734 26.174 48.7362C26.1867 48.776 26.1843 48.8191 26.1672 48.8572C26.1501 48.8953 26.1195 48.9258 26.0813 48.9427C26.043 48.9596 25.9999 48.9618 25.9602 48.9489C25.9205 48.9359 25.8869 48.9087 25.866 48.8726C25.1451 47.4888 24.4981 46.0679 23.9278 44.6156C23.9126 44.5795 23.8854 44.5497 23.8508 44.5314C23.8162 44.5131 23.7763 44.5073 23.7379 44.5151C23.6996 44.5229 23.6651 44.5437 23.6403 44.5741C23.6156 44.6044 23.6021 44.6424 23.6022 44.6816C23.7628 51.9988 30.0196 59.3138 30.1384 59.4524L30.6488 59.9848C30.7596 60.1089 30.9066 60.1951 31.0689 60.2315C31.2313 60.2678 31.401 60.2523 31.5541 60.1873C31.7073 60.1223 31.8362 60.0109 31.9228 59.8688C32.0094 59.7267 32.0494 59.5611 32.037 59.3952Z" fill="#E6E6E6"/>
<path d="M23.9542 65.432C24.3634 60.372 24.8342 46.182 18.7402 35.3074C18.7216 35.2759 18.7158 35.2385 18.724 35.2029C18.7322 35.1673 18.7537 35.1361 18.7841 35.1158C18.8145 35.0956 18.8515 35.0877 18.8875 35.0939C18.9236 35.1 18.9559 35.1198 18.9778 35.149C19.338 35.6204 19.6644 36.1166 19.9546 36.634C19.9709 36.6624 19.9965 36.6843 20.027 36.6961C20.0576 36.7079 20.0912 36.7088 20.1224 36.6988C20.1536 36.6887 20.1803 36.6683 20.1982 36.6409C20.2161 36.6135 20.2241 36.5808 20.2208 36.5482C20.0632 35.1639 19.8096 33.7922 19.4618 32.443C19.4553 32.4254 19.4523 32.4067 19.4531 32.3879C19.4538 32.3691 19.4582 32.3507 19.4661 32.3336C19.474 32.3166 19.4851 32.3012 19.4989 32.2885C19.5127 32.2757 19.5289 32.2658 19.5465 32.2593C19.5641 32.2528 19.5829 32.2499 19.6016 32.2506C19.6204 32.2513 19.6388 32.2558 19.6559 32.2636C19.6729 32.2715 19.6883 32.2826 19.701 32.2964C19.7138 32.3102 19.7237 32.3264 19.7302 32.344C20.2979 33.4896 20.715 34.7038 20.971 35.9564C20.9769 35.9928 20.9966 36.0254 21.0259 36.0476C21.0553 36.0698 21.0921 36.0798 21.1287 36.0756C21.1652 36.0713 21.1988 36.0532 21.2223 36.0248C21.2458 35.9965 21.2574 35.9601 21.2548 35.9234C21.2328 35.3844 21.1954 34.8058 21.1382 34.2008C21.1336 34.165 21.1428 34.1289 21.1637 34.0995C21.1847 34.0702 21.216 34.0499 21.2514 34.0426C21.2867 34.0354 21.3235 34.0418 21.3543 34.0605C21.3851 34.0792 21.4077 34.1089 21.4176 34.1436C22.1089 36.3736 22.2775 38.7328 21.9104 41.0384V41.0582C22.3853 38.7576 22.6322 36.4157 22.6474 34.0666C22.6419 34.0278 22.652 33.9884 22.6755 33.9571C22.699 33.9257 22.734 33.905 22.7728 33.8994C22.8116 33.8939 22.851 33.904 22.8824 33.9275C22.9137 33.951 22.9345 33.986 22.94 34.0248C23.2168 35.1316 23.3863 36.2625 23.446 37.4018C23.446 37.4398 23.4611 37.4761 23.4879 37.5029C23.5147 37.5298 23.5511 37.5448 23.589 37.5448C23.6269 37.5448 23.6633 37.5298 23.6901 37.5029C23.7169 37.4761 23.732 37.4398 23.732 37.4018C23.7518 37.1818 23.7672 36.9618 23.7782 36.7418C23.7784 36.7061 23.7919 36.6718 23.8161 36.6456C23.8403 36.6194 23.8735 36.6031 23.909 36.6001C23.9446 36.5971 23.98 36.6075 24.0083 36.6292C24.0366 36.6509 24.0558 36.6825 24.062 36.7176C24.3817 38.1621 24.536 39.6383 24.5218 41.1176C24.522 41.1533 24.5355 41.1876 24.5597 41.2139C24.5839 41.2401 24.6171 41.2563 24.6526 41.2593C24.6882 41.2624 24.7236 41.252 24.7519 41.2302C24.7802 41.2085 24.7994 41.177 24.8056 41.1418C25.0388 39.6854 25.2456 38.0618 25.3512 36.3766C25.3519 36.3411 25.3658 36.3071 25.3902 36.2813C25.4146 36.2555 25.4477 36.2396 25.4831 36.2369C25.5185 36.2341 25.5537 36.2447 25.5818 36.2664C25.6099 36.2882 25.6288 36.3196 25.635 36.3546C26.7812 41.8766 24.931 47.7748 24.2424 49.68C25.5954 46.1164 26.6262 42.4387 27.3224 38.691C27.328 38.6564 27.3462 38.6251 27.3735 38.603C27.4007 38.5809 27.4351 38.5696 27.4702 38.5712C27.5052 38.5728 27.5384 38.5873 27.5635 38.6118C27.5886 38.6363 27.6038 38.6692 27.6062 38.7042C27.766 40.5666 27.6921 42.4416 27.3862 44.2856C27.3827 44.3204 27.3921 44.3553 27.4126 44.3836C27.4332 44.412 27.4633 44.4318 27.4975 44.4394C27.5316 44.447 27.5674 44.4418 27.5979 44.4248C27.6285 44.4078 27.6518 44.3802 27.6634 44.3472C27.8834 43.6036 28.0726 42.838 28.2486 42.0548C28.2548 42.0198 28.2737 41.9884 28.3018 41.9666C28.3299 41.9449 28.3651 41.9343 28.4005 41.9371C28.4359 41.9398 28.469 41.9557 28.4934 41.9815C28.5178 42.0073 28.5317 42.0413 28.5324 42.0768C28.715 44.7454 28.2904 47.6076 27.692 50.1288C27.6818 50.1656 27.6866 50.2049 27.7054 50.2381C27.7241 50.2713 27.7553 50.2957 27.7921 50.3059C27.8289 50.3161 27.8682 50.3113 27.9014 50.2926C27.9346 50.2738 27.959 50.2426 27.9692 50.2058C28.3175 49.1257 28.6112 48.0287 28.8492 46.919C28.8551 46.886 28.8724 46.856 28.8981 46.8344C28.9239 46.8128 28.9564 46.801 28.99 46.801C29.0236 46.801 29.0561 46.8128 29.0819 46.8344C29.1076 46.856 29.1249 46.886 29.1308 46.919C29.3579 48.7294 29.2453 50.5663 28.7986 52.3354C28.7878 52.3714 28.7916 52.4103 28.8092 52.4435C28.8268 52.4767 28.8568 52.5016 28.8927 52.5129C28.9285 52.5242 28.9674 52.5209 29.0008 52.5037C29.0343 52.4866 29.0596 52.4569 29.0714 52.4212C29.3926 51.5918 29.7028 50.7206 29.9844 49.8208C29.9946 49.7885 30.0159 49.7608 30.0445 49.7427C30.0732 49.7246 30.1073 49.7173 30.1409 49.7221C30.1745 49.7268 30.2052 49.7433 30.2277 49.7687C30.2503 49.794 30.263 49.8265 30.2638 49.8604C30.3562 52.1814 29.8238 54.454 29.0472 56.4494C29.034 56.4834 29.0343 56.5212 29.0481 56.5549C29.0618 56.5887 29.0879 56.6159 29.121 56.6311C29.1542 56.6463 29.1919 56.6482 29.2264 56.6365C29.2609 56.6248 29.2897 56.6004 29.3068 56.5682C29.9354 55.4023 30.5016 54.2038 31.003 52.9778C31.0158 52.9469 31.0391 52.9215 31.0687 52.906C31.0984 52.8904 31.1326 52.8858 31.1653 52.8929C31.198 52.8999 31.2272 52.9183 31.2478 52.9446C31.2684 52.971 31.2791 53.0038 31.278 53.0372C31.058 59.2478 25.657 65.3836 25.558 65.5002L25.118 65.9402C25.022 66.0396 24.8979 66.1072 24.7623 66.134C24.6268 66.1609 24.4862 66.1456 24.3596 66.0903C24.233 66.035 24.1263 65.9423 24.0538 65.8247C23.9814 65.707 23.9466 65.57 23.9542 65.432Z" fill="#E0E0E0"/>
<path d="M17.1936 55.2505C16.8643 55.2502 16.5384 55.3166 16.2355 55.4458C15.9326 55.575 15.6591 55.7643 15.4314 56.0022C15.2038 56.2402 15.0267 56.5218 14.911 56.8301C14.7953 57.1384 14.7433 57.4669 14.7582 57.7959C15.0816 64.9107 16.692 84.4929 24.623 84.4929C32.554 84.4929 34.1644 64.9129 34.4878 57.7959C34.5024 57.467 34.4501 57.1386 34.3343 56.8304C34.2185 56.5223 34.0414 56.2408 33.8139 56.0029C33.5863 55.7651 33.3129 55.5758 33.0101 55.4464C32.7074 55.3171 32.3816 55.2505 32.0524 55.2505H17.1936Z" fill="#EBEBEB"/>
<path d="M85.0768 60.2446H43.2394V61.4744H85.0768V60.2446Z" fill="#F5F5F5"/>
<path d="M85.0768 61.4766H93.8394V60.2468H85.0768V61.4766Z" fill="#E0E0E0"/>
<path d="M89.457 61.4741H89.0918L84.8524 84.4927H85.2198L89.457 61.4741Z" fill="#E0E0E0"/>
<path d="M89.457 61.4741H89.8244L94.0638 84.4927H93.6964L89.457 61.4741Z" fill="#E0E0E0"/>
<path d="M47.6218 61.4741H47.2544L43.015 84.4927H43.3824L47.6218 61.4741Z" fill="#E0E0E0"/>
<path d="M47.6218 61.4741H47.987L52.2264 84.4927H51.8612L47.6218 61.4741Z" fill="#E0E0E0"/>
<path d="M64.6432 76.1089H60.318V84.4931H64.6432V76.1089Z" fill="#E6E6E6"/>
<path d="M51.3508 84.4927H60.318V76.1085H51.3508V84.4927Z" fill="#F5F5F5"/>
<path d="M53.9468 79.6616H51.3508V81.3754H53.9468V79.6616Z" fill="#F0F0F0"/>
<path d="M53.9468 81.8486H51.3508V83.5624H53.9468V81.8486Z" fill="#F0F0F0"/>
<path d="M64.8324 75.4683H60.384V76.1085H64.8324V75.4683Z" fill="#E0E0E0"/>
<path d="M51.1594 76.1089H60.384V75.4687H51.1594V76.1089Z" fill="#F0F0F0"/>
<path d="M82.9604 72.0649H76.5496V84.4927H82.9604V72.0649Z" fill="#E6E6E6"/>
<path d="M63.2572 84.4907H76.5496V72.0629H63.2572V84.4907Z" fill="#F5F5F5"/>
<path d="M75.4694 73.4863H70.8758V77.5343H75.4694V73.4863Z" fill="#F0F0F0"/>
<path d="M75.4694 78.6562H70.8758V82.7042H75.4694V78.6562Z" fill="#F0F0F0"/>
<path d="M83.2442 71.1167H76.6486V72.0649H83.2442V71.1167Z" fill="#E0E0E0"/>
<path d="M62.9734 72.063H76.6464V71.1148H62.9734V72.063Z" fill="#F0F0F0"/>
<path d="M55.5 94.4281C79.0582 94.4281 98.1558 93.3131 98.1558 91.9377C98.1558 90.5623 79.0582 89.4473 55.5 89.4473C31.9419 89.4473 12.8442 90.5623 12.8442 91.9377C12.8442 93.3131 31.9419 94.4281 55.5 94.4281Z" fill="#F5F5F5"/>
<path d="M95.3316 36.952L95.2611 38.541L95.4897 38.5512L95.5602 36.9621L95.3316 36.952Z" fill="#407BFF"/>
<path d="M95.5766 31.4581L95.3885 35.6978L95.6171 35.7079L95.8051 31.4683L95.5766 31.4581Z" fill="#407BFF"/>
<path d="M91.965 57.0017H48.0068C47.761 57.0033 47.5174 56.9546 47.2911 56.8586C47.0648 56.7626 46.8605 56.6214 46.6908 56.4436C46.521 56.2658 46.3894 56.0552 46.3039 55.8247C46.2185 55.5942 46.1811 55.3486 46.194 55.1031L47.6768 21.9909C47.7052 21.4826 47.9253 21.0039 48.2928 20.6516C48.6603 20.2992 49.1477 20.0993 49.6568 20.0923H93.6194C93.8653 20.0905 94.109 20.139 94.3354 20.2349C94.5619 20.3307 94.7663 20.4719 94.9362 20.6498C95.106 20.8277 95.2376 21.0384 95.3229 21.2691C95.4082 21.4997 95.4454 21.7454 95.4322 21.9909L93.9494 55.1031C93.9205 55.612 93.6996 56.091 93.3312 56.4434C92.9629 56.7958 92.4747 56.9953 91.965 57.0017Z" fill="#407BFF"/>
<path opacity="0.5" d="M91.6416 57.0017H48.0068C47.761 57.0033 47.5174 56.9545 47.2911 56.8586C47.0648 56.7626 46.8605 56.6213 46.6908 56.4436C46.521 56.2658 46.3894 56.0551 46.3039 55.8246C46.2185 55.5941 46.1811 55.3486 46.194 55.1031L47.6768 21.9909C47.7052 21.4826 47.9253 21.0039 48.2928 20.6516C48.6603 20.2992 49.1477 20.0993 49.6568 20.0923H93.296C93.5419 20.0908 93.7855 20.1395 94.012 20.2355C94.2384 20.3314 94.4428 20.4726 94.6128 20.6504C94.7827 20.8281 94.9145 21.0387 95.0002 21.2692C95.0859 21.4997 95.1236 21.7453 95.111 21.9909L93.626 55.1031C93.5971 55.612 93.3762 56.091 93.0079 56.4434C92.6396 56.7958 92.1513 56.9953 91.6416 57.0017Z" fill="white"/>
<path opacity="0.4" d="M78.8288 48.1752L70.9616 48.1048L71.945 37.0674H79.4932L78.8288 48.1752Z" fill="#407BFF"/>
<path opacity="0.4" d="M59.823 35.7386L51.9536 35.7034L52.8864 24.666L60.7558 24.7012L59.823 35.7386Z" fill="#407BFF"/>
<path opacity="0.4" d="M80.1818 35.1623L72.2662 35.4967L72.7524 24.4989L80.3512 24.1777L80.1818 35.1623Z" fill="#407BFF"/>
<path opacity="0.4" d="M88.9136 44.264L81.1806 43.6568L82.2542 32.6304L89.8288 33.4224L88.9136 44.264Z" fill="#407BFF"/>
<path opacity="0.4" d="M69.492 32.7004L63.4376 32.5376L64.047 24.0522L70.031 24.1424L69.492 32.7004Z" fill="#407BFF"/>
<path opacity="0.4" d="M58.9342 55.3648L52.9876 55.2394L53.5948 46.7518L59.306 46.644L58.9342 55.3648Z" fill="#407BFF"/>
<path opacity="0.4" d="M91.1884 31.317L85.1274 31.3324L85.816 22.8382L91.7604 22.8228L91.1884 31.317Z" fill="#407BFF"/>
<path opacity="0.4" d="M61.473 44.6995L67.468 45.3903L68.5394 36.7443L62.8194 36.2646L61.473 44.6995Z" fill="#407BFF"/>
<path d="M78.5208 47.8519L70.6536 47.7815L71.637 36.7441L79.5042 36.8167L78.5208 47.8519Z" fill="white"/>
<path d="M59.7614 35.4901L51.8942 35.4197L52.8776 24.3823L60.7448 24.4549L59.7614 35.4901Z" fill="white"/>
<path d="M79.8738 34.8389L71.9582 35.1733L72.4422 24.1777L80.36 23.8433L79.8738 34.8389Z" fill="white"/>
<path d="M88.6716 44.1514L80.8726 43.3352L81.9462 32.3066L89.7452 33.1228L88.6716 44.1514Z" fill="white"/>
<path d="M69.3754 32.3794L63.321 32.2166L63.9282 23.729L69.9826 23.8918L69.3754 32.3794Z" fill="white"/>
<path d="M58.734 55.0789L52.6796 54.9161L53.2868 46.4307L59.3412 46.5935L58.734 55.0789Z" fill="white"/>
<path d="M90.9838 31.1981L84.9228 31.2135L85.6114 22.7171L91.6724 22.7017L90.9838 31.1981Z" fill="white"/>
<path d="M61.165 44.3757L67.16 45.0665L68.5042 36.6317L62.5114 35.9409L61.165 44.3757Z" fill="white"/>
<path opacity="0.4" d="M64.3352 48.4175C64.3352 48.4175 64.3 50.7209 63.97 51.4051C65.0458 51.7131 67.1204 51.7087 67.1204 51.7087C67.1204 51.7087 67.5736 49.4933 67.4988 48.6287C66.8806 48.4813 64.3352 48.4175 64.3352 48.4175Z" fill="#407BFF"/>
<path d="M64.3352 48.4175C64.3352 48.4175 64.08 50.7165 63.7522 51.4051C64.7186 51.6355 65.7 51.798 66.6892 51.8913C66.6892 51.8913 67.6044 49.4999 67.4988 48.6221C66.8806 48.4813 64.3352 48.4175 64.3352 48.4175Z" fill="white"/>
<path opacity="0.4" d="M80.5338 48.7936C80.5338 48.7936 81.7812 51.9484 81.7108 53.0616C83.4004 52.8724 86.3418 51.9022 86.3418 51.9022C86.3418 51.9022 85.7126 48.4284 85.1076 47.2822C84.1616 47.445 80.5338 48.7936 80.5338 48.7936Z" fill="#407BFF"/>
<path d="M80.1268 48.556C80.1268 48.556 81.174 52.6084 81.1036 53.7216C82.7932 53.5302 86.0536 52.2234 86.0536 52.2234C86.0536 52.2234 85.6136 48.083 84.9536 46.9434C84.0164 47.1128 80.1268 48.556 80.1268 48.556Z" fill="white"/>
<path opacity="0.4" d="M84.2474 47.9113C84.2423 48.0084 84.2003 48.0999 84.1299 48.167C84.0596 48.2341 83.9662 48.2717 83.869 48.2721C83.8221 48.2728 83.7756 48.2638 83.7324 48.2458C83.6891 48.2277 83.6501 48.2009 83.6177 48.167C83.5853 48.1331 83.5602 48.093 83.544 48.049C83.5278 48.005 83.5209 47.9581 83.5236 47.9113C83.5286 47.8141 83.5706 47.7223 83.6409 47.6549C83.7112 47.5874 83.8046 47.5493 83.902 47.5484C83.949 47.548 83.9955 47.5572 84.0387 47.5756C84.082 47.5939 84.121 47.6209 84.1534 47.655C84.1858 47.689 84.2108 47.7293 84.227 47.7734C84.2432 47.8175 84.2501 47.8645 84.2474 47.9113Z" fill="#407BFF"/>
<path d="M60.0628 24.4593C60.0518 24.624 59.9796 24.7786 59.8602 24.8926C59.7409 25.0066 59.5832 25.0718 59.4182 25.0753C59.3382 25.0763 59.2589 25.0609 59.1851 25.0299C59.1114 24.999 59.0448 24.9532 58.9895 24.8955C58.9342 24.8377 58.8914 24.7691 58.8637 24.6941C58.836 24.6191 58.8241 24.5391 58.8286 24.4593C58.8396 24.2946 58.9118 24.14 59.0311 24.026C59.1505 23.912 59.3082 23.8468 59.4732 23.8433C59.5531 23.8426 59.6322 23.8582 59.7059 23.8893C59.7795 23.9203 59.8459 23.9661 59.9012 24.0238C59.9564 24.0815 59.9992 24.1499 60.027 24.2248C60.0548 24.2997 60.067 24.3795 60.0628 24.4593Z" fill="#407BFF"/>
<path d="M64.1526 36.1393C64.147 36.2572 64.0964 36.3685 64.0113 36.4503C63.9262 36.5321 63.813 36.5783 63.695 36.5793C63.638 36.58 63.5815 36.5689 63.529 36.5468C63.4765 36.5246 63.4291 36.4919 63.3899 36.4506C63.3506 36.4092 63.3204 36.3603 63.3009 36.3067C63.2815 36.2531 63.2734 36.1961 63.277 36.1393C63.2826 36.0213 63.3332 35.91 63.4183 35.8282C63.5034 35.7464 63.6165 35.7002 63.7346 35.6993C63.7916 35.6985 63.8481 35.7096 63.9006 35.7317C63.9531 35.7539 64.0005 35.7866 64.0397 35.828C64.0789 35.8693 64.1092 35.9182 64.1287 35.9718C64.1481 36.0254 64.1562 36.0824 64.1526 36.1393Z" fill="#407BFF"/>
<path d="M82.78 27.3941C82.7733 27.5117 82.7225 27.6224 82.6376 27.704C82.5527 27.7856 82.4401 27.8321 82.3224 27.8341C82.2654 27.8345 82.209 27.8232 82.1565 27.801C82.104 27.7787 82.0567 27.746 82.0173 27.7048C81.978 27.6636 81.9474 27.6148 81.9277 27.5614C81.9079 27.5079 81.8992 27.451 81.9022 27.3941C81.9083 27.2764 81.959 27.1654 82.044 27.0837C82.129 27.0019 82.2419 26.9556 82.3598 26.9541C82.4168 26.9537 82.4732 26.965 82.5257 26.9872C82.5782 27.0095 82.6255 27.0422 82.6649 27.0834C82.7042 27.1246 82.7347 27.1734 82.7545 27.2269C82.7743 27.2803 82.783 27.3372 82.78 27.3941Z" fill="#407BFF"/>
<path d="M34.523 29.5674C34.7606 30.7796 34.996 32.9994 34.149 33.809C34.8366 34.9201 35.8598 35.7838 37.0706 36.2752C38.692 35.261 37.9154 33.809 37.9154 33.809C36.5646 33.4856 36.5954 32.489 36.8352 31.5408L34.523 29.5674Z" fill="#B55B52"/>
<path d="M32.9148 29.9813C31.9182 29.8801 28.9548 34.0667 34.6924 35.9345C33.7596 35.0699 33.2954 34.2317 33.5396 33.2417C33.6855 32.4749 33.7255 31.6917 33.6584 30.9141C33.6584 30.9141 33.9994 30.0913 32.9148 29.9813Z" fill="#263238"/>
<path d="M33.522 35.0744C33.3175 34.841 33.1565 34.5727 33.0468 34.2824C32.9788 34.0894 32.9615 33.8821 32.9968 33.6805C33.0321 33.479 33.1186 33.2898 33.2481 33.1314C33.3776 32.9729 33.5457 32.8505 33.7362 32.7758C33.9268 32.7011 34.1333 32.6767 34.336 32.705C34.954 32.7899 35.5803 32.7943 36.1994 32.7182C37.603 32.5444 38.3378 33.2506 39.0968 34.7642C39.0968 34.7642 38.7426 35.4242 37.68 35.6816C36.6174 35.939 33.522 35.0744 33.522 35.0744Z" fill="#407BFF"/>
<path d="M39.7084 28.4986C39.671 28.6592 39.7238 28.8088 39.8294 28.833C39.935 28.8572 40.0494 28.7494 40.089 28.5888C40.1286 28.4282 40.0736 28.2786 39.968 28.2544C39.8624 28.2302 39.748 28.338 39.7084 28.4986Z" fill="#263238"/>
<path d="M39.9196 28.2517L40.331 28.2319C40.331 28.2319 40.0626 28.4849 39.9196 28.2517Z" fill="#263238"/>
<path d="M40.1792 27.5963C40.1979 27.5971 40.2165 27.5926 40.2327 27.5831C40.2489 27.5736 40.262 27.5596 40.2704 27.5429C40.2788 27.5261 40.2821 27.5072 40.28 27.4886C40.2779 27.4699 40.2704 27.4523 40.2584 27.4379C40.1622 27.3181 40.0386 27.2233 39.8981 27.1613C39.7576 27.0993 39.6043 27.0719 39.451 27.0815C39.4383 27.0828 39.4259 27.0867 39.4147 27.0929C39.4035 27.099 39.3936 27.1074 39.3856 27.1174C39.3776 27.1275 39.3717 27.139 39.3682 27.1513C39.3647 27.1636 39.3637 27.1765 39.3652 27.1893C39.3685 27.2148 39.3816 27.238 39.4017 27.254C39.4219 27.27 39.4474 27.2776 39.473 27.2751C39.5946 27.2687 39.716 27.2916 39.827 27.3417C39.938 27.3918 40.0354 27.4678 40.111 27.5633C40.1286 27.5827 40.1531 27.5945 40.1792 27.5963Z" fill="#263238"/>
<path d="M39.5082 28.9888C39.5627 29.3891 39.6722 29.78 39.8338 30.1504C39.7381 30.1888 39.6353 30.2059 39.5323 30.2006C39.4294 30.1953 39.3288 30.1676 39.2376 30.1196L39.5082 28.9888Z" fill="#A02724"/>
<path d="M34.4614 26.5445C34.1094 28.5421 33.918 29.3781 34.6682 30.6277C35.7968 32.5065 38.3246 32.5021 39.2684 30.6519C40.1154 28.9865 40.551 26.0011 38.813 24.7559C38.4314 24.4793 37.9853 24.3047 37.5172 24.2489C37.0492 24.1931 36.5746 24.2579 36.1386 24.4371C35.7026 24.6163 35.3196 24.904 35.0261 25.2728C34.7326 25.6417 34.5382 26.0794 34.4614 26.5445Z" fill="#B55B52"/>
<path d="M38.01 28.1288C38.615 27.8824 40.0538 27.3368 40.4058 26.4766C40.7578 25.6164 39.3058 23.3196 38.065 23.7728C34.8332 23.0842 32.5804 24.6308 32.5936 27.0728C32.6068 29.6248 33.621 31.0768 35.2842 31.4552C36.9474 31.8336 38.3928 30.0912 38.01 28.1288Z" fill="#263238"/>
<path d="M33.3658 28.8305C32.7058 28.7403 32.3538 29.4091 32.5936 29.9635C32.8334 30.5179 33.6342 31.3957 33.9422 31.3957C34.2502 31.3957 34.8596 31.1757 35.0136 30.8303C35.1676 30.4849 33.8102 28.8943 33.3658 28.8305Z" fill="#407BFF"/>
<path d="M37.46 27.9442C37.415 28.1328 37.4078 28.3285 37.4387 28.5199C37.4697 28.7114 37.5382 28.8948 37.6404 29.0596C37.9154 29.4996 38.4016 29.339 38.6172 28.8946C38.8108 28.4964 38.8988 27.7946 38.483 27.4998C38.3909 27.4372 38.2845 27.399 38.1737 27.3886C38.0629 27.3782 37.9513 27.396 37.8492 27.4404C37.7471 27.4847 37.6579 27.5542 37.5898 27.6423C37.5218 27.7304 37.4771 27.8342 37.46 27.9442Z" fill="#B55B52"/>
<path d="M32.8246 35.8464C32.8246 35.9278 32.8246 36.0664 32.8246 36.1742V36.5306C32.8246 36.7697 32.8356 37.0095 32.8576 37.25C32.8911 37.7248 32.9528 38.1972 33.0424 38.6646C33.2047 39.5588 33.5411 40.4124 34.0324 41.177C34.2128 41.4102 34.1424 41.3728 34.2964 41.4784C34.4606 41.5809 34.6364 41.6636 34.82 41.7248C35.2726 41.8783 35.7358 41.9981 36.206 42.0834C37.185 42.2682 38.2212 42.3958 39.2376 42.4992L39.2662 43.5354C38.1884 43.6764 37.1 43.7184 36.0146 43.6608C35.4423 43.6344 34.8738 43.5549 34.3162 43.4232C33.9942 43.3459 33.682 43.2322 33.3856 43.0844C33.2005 42.9875 33.0283 42.8678 32.873 42.728C32.829 42.6884 32.785 42.6422 32.741 42.596L32.6596 42.5014L32.51 42.3232C32.1316 41.8483 31.8165 41.3262 31.5728 40.77C31.3354 40.2342 31.1512 39.6764 31.0228 39.1046C30.892 38.5466 30.803 37.9797 30.7566 37.4084C30.7368 37.1246 30.7236 36.8408 30.7192 36.5548C30.7192 36.4118 30.7192 36.2688 30.7192 36.1258C30.7192 35.9828 30.7302 35.8486 30.7456 35.666L32.8246 35.8464Z" fill="#B55B52"/>
<path d="M39.1738 42.4223L41.354 42.0791L40.2804 43.8567C40.2804 43.8567 38.9604 43.8017 38.5996 43.0383L39.1738 42.4223Z" fill="#B55B52"/>
<path d="M42.432 42.6775L42.4386 43.9997L40.2804 43.8567L41.354 42.0791L42.432 42.6775Z" fill="#B55B52"/>
<path d="M47.0278 48.307H40.2078C40.1626 48.3125 40.1168 48.3061 40.0749 48.2883C40.0331 48.2705 39.9966 48.242 39.9692 48.2057C39.9418 48.1694 39.9244 48.1265 39.9188 48.0813C39.9132 48.0362 39.9195 47.9903 39.9372 47.9484L43.0854 38.7766C43.1273 38.6736 43.1983 38.585 43.2897 38.5217C43.3811 38.4584 43.489 38.4232 43.6002 38.4202H50.4202C50.4653 38.4142 50.5111 38.4203 50.5531 38.4377C50.5951 38.4552 50.6317 38.4835 50.6592 38.5197C50.6867 38.5559 50.7041 38.5988 50.7096 38.6439C50.7152 38.689 50.7087 38.7348 50.6908 38.7766L47.5426 47.9484C47.5004 48.0514 47.4293 48.1399 47.338 48.2036C47.2467 48.2672 47.139 48.3031 47.0278 48.307Z" fill="#407BFF"/>
<path d="M46.9068 48.0165H40.32C40.2947 48.0199 40.269 48.0165 40.2455 48.0067C40.222 47.9968 40.2016 47.9808 40.1863 47.9604C40.1711 47.94 40.1616 47.9159 40.1588 47.8905C40.156 47.8652 40.16 47.8396 40.1704 47.8163L43.2812 38.7457C43.3051 38.6883 43.345 38.639 43.396 38.6035C43.4471 38.568 43.5073 38.5479 43.5694 38.5455H50.1694C50.1947 38.5424 50.2203 38.546 50.2437 38.5559C50.2672 38.5657 50.2876 38.5816 50.303 38.6019C50.3184 38.6222 50.3281 38.6461 50.3313 38.6714C50.3345 38.6966 50.331 38.7223 50.3212 38.7457L47.2082 47.8163C47.1834 47.8758 47.1415 47.9265 47.0879 47.9622C47.0342 47.9978 46.9712 48.0167 46.9068 48.0165Z" fill="white"/>
<path d="M30.7874 34.2446L32.9874 35.1356L34.16 36.4358L34.3118 38.2288C34.3118 38.2288 31.7488 40.1736 30.387 39.9888C29.9162 36.6932 30.211 34.8804 30.7874 34.2446Z" fill="#263238"/>
<path d="M41.6092 35.6987C41.6422 37.1793 41.4332 40.2615 40.3926 46.6613H32.0964C32.235 43.2843 32.4 41.1613 30.7764 34.2401C31.8918 34.0108 33.0228 33.8652 34.16 33.8045C35.4138 33.7142 36.6726 33.7142 37.9264 33.8045C38.7382 33.8793 39.605 34.0091 40.265 34.1235C40.6372 34.189 40.975 34.382 41.2203 34.6695C41.4656 34.9569 41.6031 35.3209 41.6092 35.6987Z" fill="#263238"/>
<path opacity="0.2" d="M39.9878 36.2754L41.464 38.68C41.387 39.5358 41.2748 40.561 41.1142 41.7864L39.9042 41.0714C39.4092 37.4326 39.9878 36.2754 39.9878 36.2754Z" fill="#1B252F"/>
<path d="M41.7456 36.3149C42.0521 37.2785 42.3455 38.2465 42.6256 39.2189L43.048 40.6775L43.455 42.1405L43.6552 42.8731L43.7542 43.2405C43.777 43.3344 43.8049 43.4269 43.8378 43.5177C43.8794 43.6381 43.9348 43.7533 44.0028 43.8609C44.0182 43.8829 44.016 43.8873 44.0028 43.8939C43.9896 43.9005 43.9874 43.9137 44.0138 43.9181C44.1436 43.919 44.2709 43.8831 44.3812 43.8147C44.563 43.7164 44.7353 43.6015 44.896 43.4715C45.072 43.3307 45.2458 43.1767 45.4174 43.0139C45.589 42.8511 45.7584 42.6685 45.9124 42.5057L46.7924 43.0601C46.6721 43.3093 46.5369 43.551 46.3876 43.7839C46.241 44.023 46.077 44.2509 45.897 44.4659C45.7048 44.7005 45.488 44.9136 45.2502 45.1017C44.9518 45.3431 44.5979 45.5065 44.2206 45.5769C43.9734 45.6185 43.7201 45.6042 43.4792 45.5351C43.2414 45.4648 43.0206 45.3465 42.8302 45.1875C42.54 44.9367 42.3055 44.628 42.1416 44.2811C42.071 44.139 42.0108 43.9919 41.9612 43.8411L41.838 43.4781L41.5916 42.7543L41.1098 41.3023L40.6456 39.8437C40.331 38.8713 40.034 37.8945 39.748 36.9155L41.7456 36.3149Z" fill="#B55B52"/>
<path d="M39.4928 35.7847C39.8426 34.9487 40.9382 34.4097 40.9382 34.4097C42.1174 35.1775 42.5156 35.5405 43.2988 39.4455C42.157 40.4443 40.265 40.4443 40.265 40.4443L39.2442 37.8043C39.2442 37.8043 39.143 36.6273 39.4928 35.7847Z" fill="#263238"/>
<path d="M45.6418 42.893L46.425 40.9834L47.3842 42.8248C47.3842 42.8248 46.6582 43.9248 45.8134 43.8368L45.6418 42.893Z" fill="#B55B52"/>
<path d="M48.1344 40.6113L48.6382 41.7201L47.3842 42.8245L46.425 40.9831L48.1344 40.6113Z" fill="#B55B52"/>
<path d="M40.3926 46.6616C40.3926 46.6616 42.465 62.3454 43.1734 68.5362C44.2184 77.6794 46.5526 89.8762 46.5526 89.8762L45.16 90.1248C45.16 90.1248 40.2936 78.1898 39.5588 69.1522C37.251 62.495 33.94 46.6616 33.94 46.6616H40.3926Z" fill="#B55B52"/>
<path d="M46.4404 88.3779L44.6386 89.2579C44.6022 89.2744 44.5731 89.3037 44.5569 89.3402C44.5407 89.3767 44.5384 89.4179 44.5506 89.4559L45.1314 91.1763C45.1493 91.2197 45.176 91.2589 45.2099 91.2913C45.2438 91.3238 45.2841 91.3488 45.3282 91.3647C45.3723 91.3807 45.4193 91.3872 45.4661 91.384C45.5129 91.3807 45.5585 91.3677 45.6 91.3457C46.3392 90.9695 46.3414 90.9189 47.2808 90.4657C47.8594 90.1819 48.7988 89.7529 49.5974 89.3657C50.396 88.9785 50.0528 88.2063 49.6854 88.3009C48.0398 88.7277 47.5228 88.4967 46.8254 88.3427C46.6968 88.3098 46.5609 88.3222 46.4404 88.3779Z" fill="#263238"/>
<path d="M38.2256 46.6616C38.2256 46.6616 36.8792 61.516 35.7462 67.643C34.556 74.078 33.6672 89.412 33.654 89.8806H32.2394C32.2394 89.8806 30.3034 72.6436 32.1096 66.8752C32.4088 59.8352 32.0964 46.6616 32.0964 46.6616H38.2256Z" fill="#B55B52"/>
<path d="M33.8212 89.5923H32.2108C32.1708 89.5914 32.1319 89.6053 32.1014 89.6312C32.071 89.6572 32.0512 89.6935 32.0458 89.7331L31.8082 91.5745C31.8039 91.6213 31.8094 91.6684 31.8244 91.7128C31.8394 91.7573 31.8635 91.7981 31.8952 91.8327C31.9269 91.8673 31.9655 91.8949 32.0085 91.9137C32.0514 91.9325 32.0979 91.9421 32.1448 91.9419C32.9544 91.9287 32.631 91.8803 33.654 91.8803C34.2832 91.8803 35.194 91.9463 36.074 91.9463C36.954 91.9463 36.9782 91.0861 36.6152 91.0091C34.9872 90.6593 34.7254 90.1775 34.171 89.7199C34.0731 89.6375 33.9492 89.5923 33.8212 89.5923Z" fill="#263238"/>
<path opacity="0.2" d="M32.1272 66.4481L35.8826 66.8617C36.0344 65.9641 36.1906 64.9279 36.3424 63.8103L32.2042 63.3857C32.18 64.4747 32.1624 65.5109 32.1272 66.4481Z" fill="#1B252F"/>
<path opacity="0.2" d="M42.6828 64.4615L38.01 63.9819C38.318 65.1281 38.626 66.2127 38.923 67.1939L43.0678 67.6471C42.96 66.7165 42.828 65.6341 42.6828 64.4615Z" fill="#1B252F"/>
<path d="M40.3926 46.6616L43.3846 67.1524L31.751 65.6784C32.8862 56.907 29.4388 49.8736 32.0964 46.6616H40.3926Z" fill="#407BFF"/>
<path opacity="0.2" d="M33.1876 50.8657C34.4594 51.971 35.9345 52.8177 37.5304 53.3583C34.9168 53.3297 33.7046 52.4013 33.1876 50.8657Z" fill="#1B252F"/>
</g>
<defs>
<clipPath id="clip0_857_3768">
<rect width="110" height="110" fill="white" transform="translate(0.5 0.364746)"/>
</clipPath>
</defs>
</svg>
