<svg width="1900" height="1886" viewBox="0 0 1900 1886" fill="none" xmlns="http://www.w3.org/2000/svg">
<g clip-path="url(#clip0_634_3701)">
<path opacity="0.65" d="M745.713 1109.59C659.619 1150.57 592.451 1224.33 560.537 1314.58C557.661 1322.69 555.063 1330.97 552.744 1339.35C505.151 1472.33 377.217 1567.65 226.831 1567.65C223.77 1567.65 220.801 1567.65 217.739 1567.55C215.513 1567.65 213.193 1567.65 210.967 1567.65C132.202 1567.65 59.375 1542.69 0 1500.33C86.0937 1459.35 153.262 1385.58 185.176 1295.34C188.052 1287.23 190.649 1278.94 192.969 1270.56C240.561 1137.59 368.496 1042.27 518.882 1042.27C521.943 1042.27 524.912 1042.27 527.974 1042.37C530.2 1042.27 532.519 1042.27 534.746 1042.27C613.511 1042.18 686.245 1067.23 745.713 1109.59Z" fill="white"/>
<path opacity="0.65" d="M1037.02 1109.59C1123.12 1150.57 1190.28 1224.33 1222.2 1314.58C1225.07 1322.69 1227.67 1330.97 1229.99 1339.35C1277.58 1472.33 1405.52 1567.65 1555.9 1567.65C1558.96 1567.65 1561.93 1567.65 1565 1567.55C1567.22 1567.65 1569.54 1567.65 1571.77 1567.65C1650.53 1567.65 1723.36 1542.69 1782.73 1500.33C1696.64 1459.35 1629.47 1385.58 1597.56 1295.34C1594.68 1287.23 1592.08 1278.94 1589.77 1270.56C1542.17 1137.59 1414.24 1042.27 1263.85 1042.27C1260.79 1042.27 1257.82 1042.27 1254.76 1042.37C1252.53 1042.27 1250.21 1042.27 1247.99 1042.27C1169.22 1042.18 1096.4 1067.23 1037.02 1109.59Z" fill="white"/>
<path opacity="0.65" d="M1088.97 1540.2C1085.45 1686.16 1007.71 1812.88 892.481 1886C768.999 1809.57 688.193 1672.26 691.997 1517.36C695.523 1371.4 773.267 1244.69 888.491 1171.57C1011.97 1248 1092.69 1385.49 1088.97 1540.2Z" fill="white"/>
<path d="M1376.57 482.55C1376.57 496.087 1376.02 509.44 1374.9 522.793C1374.16 531.542 1373.23 540.29 1372.03 548.763C1371.1 555.209 1370.08 561.471 1368.96 567.733C1368.04 573.259 1366.92 578.692 1365.81 584.125C1358.39 618.198 1347.35 651.074 1333.25 682.017C1331.95 684.779 1330.65 687.45 1329.35 690.213C1308.75 732.942 1282.04 772.265 1250.31 806.983C1247.62 810.022 1244.83 812.968 1241.96 815.915C1238.25 819.783 1234.44 823.559 1230.64 827.242C1226.37 831.478 1222.01 835.53 1217.56 839.582C1214.22 842.621 1210.88 845.568 1207.45 848.423C1201.69 853.396 1195.76 858.185 1189.73 862.881C1185.09 866.565 1180.36 870.064 1175.53 873.471C1171.17 876.695 1166.72 879.734 1162.17 882.773C1154.38 888.022 1146.31 893.087 1138.24 897.875C1134.8 899.993 1131.28 902.019 1127.66 904.045C1117.83 909.387 1107.81 914.544 1097.7 919.332C1092.22 921.911 1086.66 924.397 1081 926.792C1076.17 928.817 1071.25 930.843 1066.25 932.685C1065.5 933.054 1064.76 933.33 1064.02 933.606C1063.55 933.054 1063.18 932.501 1062.72 931.949C1062.72 931.949 1062.72 931.856 1062.63 931.856C1026.63 881.483 1005.39 820.059 1005.39 753.57C1005.39 730.732 1007.89 708.631 1012.71 687.174V687.082C1013.09 685.148 1013.55 683.214 1014.01 681.372C1017.72 679.162 1021.34 676.768 1024.87 674.281C1028.49 671.795 1031.92 669.308 1035.35 666.546C1038.78 663.967 1042.12 661.204 1045.37 658.35C1045.56 658.258 1045.65 658.165 1045.74 658.073C1048.71 655.495 1051.59 652.824 1054.37 650.062C1055.21 649.325 1055.95 648.588 1056.78 647.759C1059.1 645.457 1061.42 643.155 1063.65 640.668C1063.93 640.3 1064.3 640.024 1064.58 639.655C1067.27 636.708 1069.96 633.67 1072.46 630.538C1075.34 627.223 1077.93 623.816 1080.44 620.316C1083.13 616.817 1085.54 613.226 1087.86 609.634C1091.29 604.477 1094.45 599.32 1097.32 593.979C1099.55 589.835 1101.68 585.599 1103.73 581.27C1104.75 579.244 1105.67 577.311 1106.42 575.285C1109.11 569.299 1111.52 563.129 1113.56 556.867C1114.58 554.012 1115.42 551.065 1116.34 548.026C1120.52 533.936 1123.39 519.386 1124.69 504.283C1125.43 497.192 1125.81 489.917 1125.81 482.55C1125.81 466.434 1124.14 450.687 1120.98 435.492C1117.83 420.297 1113.19 405.655 1107.25 391.657C1102.8 381.159 1097.6 371.029 1091.66 361.452C1087.68 355.098 1083.5 348.836 1078.96 342.85C1072.09 333.825 1064.67 325.261 1056.69 317.433C1014.2 275.164 955.288 249.01 890.439 249.01C825.405 249.01 766.772 275.072 724.189 317.433C716.211 325.353 708.789 333.917 701.924 342.85C697.378 348.836 693.203 355.098 689.214 361.452C683.369 371.121 678.081 381.251 673.628 391.657C667.69 405.655 663.052 420.297 659.897 435.492C656.743 450.687 655.073 466.434 655.073 482.55C655.073 489.917 655.444 497.192 656.187 504.283C657.485 519.386 660.361 533.936 664.536 548.026C665.464 551.065 666.299 554.012 667.319 556.867C669.36 563.129 671.772 569.299 674.463 575.285C675.205 577.311 676.133 579.244 677.153 581.27C679.102 585.507 681.235 589.743 683.555 593.979C686.431 599.32 689.585 604.477 693.018 609.634C695.337 613.226 697.749 616.817 700.439 620.316C702.944 623.816 705.542 627.223 708.418 630.538C710.923 633.67 713.613 636.708 716.304 639.655C716.582 640.024 716.86 640.392 717.231 640.668C719.458 643.155 721.777 645.457 724.097 647.759C724.839 648.588 725.674 649.325 726.509 650.062C729.292 652.824 732.168 655.495 735.137 658.073C735.23 658.165 735.322 658.258 735.508 658.35C738.755 661.204 742.095 663.967 745.527 666.546C748.96 669.308 752.393 671.795 756.011 674.281C759.536 676.768 763.154 679.162 766.865 681.372C767.329 683.214 767.793 685.148 768.164 687.082V687.174C772.988 708.631 775.493 730.732 775.493 753.57C775.493 820.151 754.248 881.483 718.252 931.856C718.159 931.856 718.159 931.949 718.159 931.949C717.695 932.501 717.324 933.054 716.86 933.606C716.118 933.33 715.376 933.054 714.634 932.685C709.624 930.843 704.707 928.817 699.883 926.792C694.224 924.397 688.657 921.911 683.184 919.332C672.886 914.544 662.866 909.479 653.218 904.045C649.6 902.019 646.074 899.993 642.642 897.875C634.385 893.087 626.406 888.022 618.706 882.773C614.16 879.734 609.707 876.695 605.347 873.471C600.522 870.064 595.791 866.565 591.152 862.881C585.122 858.277 579.277 853.488 573.525 848.423C570.093 845.568 566.66 842.621 563.32 839.582C558.867 835.53 554.507 831.478 550.239 827.242C546.343 823.559 542.539 819.783 538.921 815.915C536.045 812.968 533.262 810.022 530.571 806.983C498.75 772.265 472.031 733.034 451.528 690.213C450.23 687.45 448.931 684.779 447.632 682.017C433.438 651.074 422.49 618.198 415.161 584.125C413.955 578.692 412.842 573.259 411.914 567.733C410.801 561.471 409.78 555.117 408.853 548.763C407.647 540.198 406.719 531.45 405.977 522.793C404.863 509.44 404.307 496.087 404.307 482.55C404.307 476.104 404.399 469.75 404.771 463.395C404.863 460.08 404.956 456.765 405.234 453.542C405.234 452.068 405.327 450.595 405.513 449.214C405.698 445.99 405.884 442.767 406.255 439.544V438.807C406.626 435.032 406.997 431.256 407.461 427.48C409.316 411.273 411.914 395.341 415.439 379.594C415.996 376.647 416.738 373.7 417.388 370.845C417.573 370.201 417.666 369.648 417.852 369.003C418.594 365.688 419.429 362.465 420.356 359.15C421.284 355.466 422.305 351.783 423.418 348.099C427.871 332.72 433.159 317.709 439.097 302.975C441.602 296.713 444.292 290.451 447.075 284.281C451.714 274.059 456.724 263.929 462.105 254.075C463.867 250.852 465.723 247.537 467.578 244.314C469.434 240.998 471.382 237.775 473.33 234.644C474.722 232.342 476.113 230.04 477.598 227.738C480.195 223.501 482.886 219.265 485.669 215.121C489.751 209.135 493.926 203.15 498.193 197.348C500.42 194.401 502.646 191.362 504.966 188.415C507.285 185.468 509.604 182.613 511.924 179.667C514.243 176.812 516.655 173.957 519.067 171.102C521.387 168.247 523.892 165.485 526.397 162.63C530.015 158.578 533.633 154.618 537.344 150.75C541.055 146.791 544.858 143.015 548.755 139.239C552.559 135.463 556.455 131.688 560.444 128.004C564.434 124.321 568.516 120.729 572.598 117.23C573.154 116.677 573.804 116.125 574.36 115.756C591.431 101.298 609.336 88.0372 628.354 75.8813C628.447 75.6972 628.54 75.6051 628.726 75.6051C640.972 68.1458 653.774 60.7786 667.041 53.8719C670.381 52.2143 673.813 50.4645 677.153 48.8069C686.895 44.0183 696.728 39.69 706.748 35.6381C708.511 34.9014 710.366 34.1646 712.222 33.4279C717.695 31.3099 723.262 29.2839 728.828 27.2579C732.725 25.8766 736.714 24.5873 740.61 23.3901C744.043 22.2851 747.476 21.18 750.908 20.167C751.279 19.9828 751.65 19.8907 752.021 19.7986C755.547 18.7856 759.072 17.7727 762.598 16.8518C766.309 15.8388 770.02 14.9179 773.73 13.997C777.163 13.1682 780.596 12.3394 784.028 11.6026C788.11 10.6817 792.285 9.76084 796.46 9.02412C800.264 8.19531 804.067 7.55068 807.964 6.90605C811.768 6.26143 815.664 5.6168 819.561 5.06426C823.364 4.51172 827.261 3.95918 831.25 3.49873C842.661 2.11738 854.165 1.10439 865.669 0.551856C868.916 0.367676 872.07 0.275586 875.317 0.183496C880.42 -0.000683586 885.615 -0.0927734 890.718 -0.0927734C895.913 -0.0927734 901.016 -0.000683586 906.118 0.183496C909.365 0.275586 912.519 0.367676 915.767 0.551856C927.456 1.10439 938.96 2.11738 950.185 3.49873C954.175 3.95918 958.071 4.51172 961.875 5.06426C965.772 5.6168 969.668 6.26143 973.472 6.90605C977.368 7.55068 981.172 8.19531 984.976 9.02412C989.15 9.76084 993.325 10.6817 997.407 11.6026C1000.84 12.3394 1004.27 13.1682 1007.71 13.997C1011.42 14.9179 1015.13 15.8388 1018.84 16.8518C1022.36 17.7727 1025.89 18.7856 1029.41 19.7986C1029.79 19.8907 1030.16 20.0749 1030.53 20.167C1033.96 21.18 1037.39 22.2851 1040.83 23.3901C1044.81 24.5873 1048.71 25.9687 1052.61 27.2579C1058.17 29.2839 1063.74 31.3099 1069.21 33.4279C1071.07 34.1646 1072.92 34.9014 1074.69 35.6381C1084.8 39.69 1094.63 44.1104 1104.28 48.8069C1107.62 50.4645 1111.05 52.2143 1114.39 53.8719C1127.66 60.7786 1140.46 68.1458 1152.99 76.0655C1153.17 76.2497 1153.27 76.2497 1153.36 76.3418C1172.38 88.4977 1190.28 101.759 1207.35 116.217C1207.91 116.769 1208.56 117.23 1209.12 117.69C1213.2 121.19 1217.28 124.781 1221.27 128.465C1225.26 132.148 1229.16 135.924 1232.96 139.7C1236.86 143.475 1240.66 147.343 1244.37 151.211C1248.08 155.079 1251.7 159.038 1255.32 163.09C1257.82 165.853 1260.23 168.708 1262.65 171.563C1265.06 174.417 1267.47 177.272 1269.79 180.127C1272.11 183.074 1274.43 185.929 1276.75 188.876C1279.07 191.822 1281.29 194.861 1283.52 197.808C1287.79 203.61 1291.96 209.596 1296.04 215.582C1298.74 219.726 1301.52 223.962 1304.12 228.198C1305.6 230.5 1306.99 232.802 1308.38 235.105C1310.33 238.236 1312.28 241.459 1314.14 244.774C1315.99 247.997 1317.75 251.312 1319.61 254.536C1324.99 264.389 1330 274.519 1334.64 284.741C1337.42 290.911 1340.11 297.173 1342.62 303.435C1348.55 318.17 1353.84 333.18 1358.3 348.559C1359.41 352.243 1360.43 355.927 1361.36 359.61C1362.29 362.925 1363.12 366.149 1363.86 369.464C1364.05 370.016 1364.14 370.661 1364.33 371.306C1364.98 374.16 1365.72 377.107 1366.27 380.054C1369.71 395.709 1372.4 411.641 1374.25 427.941C1374.72 431.717 1375.09 435.492 1375.46 439.268V440.005C1375.83 443.228 1376.02 446.451 1376.2 449.674C1376.29 450.227 1376.39 450.871 1376.39 451.424C1376.48 452.253 1376.48 453.173 1376.48 454.002C1376.76 457.225 1376.85 460.541 1376.94 463.856C1376.48 469.75 1376.57 476.104 1376.57 482.55Z" fill="white"/>
</g>
<defs>
<clipPath id="clip0_634_3701">
<rect width="1900" height="1886" fill="white"/>
</clipPath>
</defs>
</svg>
